<?xml version="1.0" encoding="UTF-8" standalone="no"?>
<!-- Generator: Adobe Illustrator 24.1.1, SVG Export Plug-In . SVG Version: 6.00 Build 0)  -->

<svg
   sodipodi:docname="03_Ekoparty_Contorno.svg"
   id="svg128"
   xml:space="preserve"
   viewBox="0 0 100.0 100.0"
   y="0px"
   x="0px"
   version="1.1"
   width="100.0mm"
   height="100.0mm"
   inkscape:version="1.1.2 (0a00cf5339, 2022-02-04)"
   xmlns:inkscape="http://www.inkscape.org/namespaces/inkscape"
   xmlns:sodipodi="http://sodipodi.sourceforge.net/DTD/sodipodi-0.dtd"
   xmlns="http://www.w3.org/2000/svg"
   xmlns:svg="http://www.w3.org/2000/svg"><defs
   id="defs132">
		
	
		
		
		
		
		
	</defs><sodipodi:namedview
   id="namedview130"
   pagecolor="#ffffff"
   bordercolor="#000000"
   borderopacity="0.25"
   inkscape:showpageshadow="2"
   inkscape:pageopacity="0.0"
   inkscape:pagecheckerboard="0"
   inkscape:deskcolor="#d1d1d1"
   showgrid="false"
   inkscape:zoom="2.8616351"
   inkscape:cx="142.57583"
   inkscape:cy="222.42528"
   inkscape:window-width="2490"
   inkscape:window-height="1526"
   inkscape:window-x="70"
   inkscape:window-y="27"
   inkscape:window-maximized="1"
   inkscape:current-layer="g542"
   showguides="false"
   inkscape:document-units="mm"
   inkscape:pageshadow="2" />
<style
   type="text/css"
   id="style68">
	.st0{fill:#DE1923;}
</style>




<g
   inkscape:label="[fixed] BG"
   inkscape:groupmode="layer"
   sodipodi:insensitive="true"
   id="g528"><rect
     x="0"
     y="0"
     width="100"
     height="100"
     style="fill:#ffffff;fill-opacity:1;stroke:none"
     id="rect526" /></g><g
   inkscape:label="Edge.Cuts"
   inkscape:groupmode="layer"
   id="g530"
   style="display:inline"><g
     id="Capa_5"
     transform="matrix(0.25272679,0,0,0.28205128,-2.7547221,-4.0615383)"
     style="display:inline">
	<g
   id="Capa_1_3_">
		<g
   id="Capa_1_4_">
			<g
   id="g72">
				<path
   class="st0"
   d="m 107.8,18.4 c 7.7,0 14.9,3 20.4,8.4 l 4.1,4.1 c 0.8,0.8 1.8,1.2 2.8,1.2 0.6,0 1.1,-0.1 1.6,-0.4 19.3,-8.7 40.7,-13.2 62.1,-13.2 5.4,0 10.7,0.3 16,0.9 15.9,1.6 31.5,5.9 46.3,12.6 0.5,0.2 1.1,0.4 1.7,0.4 1,0 2.1,-0.4 2.8,-1.2 l 4.1,-4.1 c 5.5,-5.4 12.7,-8.4 20.4,-8.4 7.5,0 14.6,2.9 20,8.1 l 0.4,0.4 31.9,32.1 c 3.1,3.2 5.3,6.6 6.6,10.4 1.2,3.2 1.8,6.7 1.8,10 0,6 -1.8,11.7 -5.1,16.4 -0.2,0.3 -0.4,0.6 -0.6,0.9 -0.9,1.2 -1.7,2.2 -2.6,3 l -4.1,4.1 c -1.2,1.2 -1.5,3.1 -0.7,4.6 0.3,0.6 0.5,1.1 0.8,1.7 0.6,1.5 2.1,2.4 3.7,2.4 h 11.3 c 16.2,0 29.5,13.2 29.6,29.4 L 383,199 c 0,16.2 -13.2,29.4 -29.5,29.4 h -11.3 c -1.6,0 -3,1 -3.7,2.4 -0.1,0.3 -0.3,0.6 -0.4,0.9 -0.2,0.4 -0.3,0.7 -0.5,1.1 -0.6,1.5 -0.3,3.2 0.8,4.4 l 4.1,4.1 c 11.2,11.3 11.1,29.6 -0.1,40.8 l -32.1,32 c -1.2,1.1 -2.6,2.3 -4.1,3.3 -0.1,0.1 -0.2,0.1 -0.3,0.2 -0.1,0.1 -0.3,0.2 -0.4,0.3 -0.1,0.1 -0.2,0.1 -0.3,0.2 -0.1,0.1 -0.2,0.1 -0.2,0.1 -0.2,0.1 -0.4,0.2 -0.6,0.4 0,0 0,0 0,0 -0.1,0 -0.2,0.1 -0.3,0.2 -4.3,2.4 -9.2,3.7 -14.2,3.7 -7.7,0 -14.9,-3 -20.4,-8.4 l -4.1,-4.1 c -0.8,-0.8 -1.8,-1.2 -2.8,-1.2 -0.5,0 -1.1,0.1 -1.6,0.3 -5.2,2.3 -10.1,4.2 -14.9,5.8 -15.3,5 -31.2,7.5 -47.3,7.5 -5.4,0 -10.7,-0.3 -16,-0.9 -16.2,-1.8 -31.8,-6 -46.3,-12.6 -0.5,-0.2 -1.1,-0.4 -1.7,-0.4 -1,0 -2.1,0.4 -2.8,1.2 l -4.1,4.1 c -5.5,5.4 -12.7,8.4 -20.4,8.4 -7.7,0 -14.9,-3 -20.4,-8.4 l -32,-32.1 c -10.5,-10.5 -11.2,-27.6 -1.5,-39 0.5,-0.6 1,-1.1 1.6,-1.6 l 4.2,-4.1 c 1.2,-1.2 1.5,-2.9 0.9,-4.4 -0.2,-0.4 -0.3,-0.7 -0.5,-1.1 -0.1,-0.3 -0.3,-0.6 -0.4,-0.9 -0.6,-1.5 -2.1,-2.4 -3.7,-2.4 H 44.3 C 28.1,228.2 14.9,215 14.9,198.7 L 15,141.9 c 0,-16.2 13.2,-29.4 29.5,-29.4 h 11.3 c 1.6,0 3,-1 3.7,-2.4 0.1,-0.3 0.3,-0.6 0.4,-0.9 0.2,-0.4 0.3,-0.7 0.5,-1.1 0.6,-1.5 0.3,-3.2 -0.8,-4.4 l -4.1,-4.1 c 0,0 0,0 0,0 -3,-3 -5.3,-6.5 -6.7,-10.6 C 47.5,85.6 47,82.5 47,79 c 0,-3.3 0.6,-6.9 1.8,-10.5 1.5,-3.7 3.7,-7 6.5,-9.8 l 32.1,-32 c 5.5,-5.3 12.7,-8.3 20.4,-8.3 m 0,-4 c -8.8,0 -17,3.4 -23.2,9.5 l -32.1,32 c -3.2,3.2 -5.7,7 -7.4,11.2 -1.3,3.8 -2.1,7.8 -2.1,11.9 0,3.8 0.6,7.5 1.9,11.1 1.6,4.6 4.2,8.7 7.7,12.1 l 4.1,4.1 c -0.3,0.7 -0.6,1.3 -0.9,2 H 44.5 C 26,108.3 11,123.3 11,141.7 l -0.1,56.8 c 0,18.5 15,33.5 33.4,33.5 h 11.3 c 0.3,0.7 0.6,1.3 0.9,2 l -4.2,4.1 c -0.6,0.6 -1.2,1.2 -1.8,1.9 -11,12.9 -10.3,32.4 1.7,44.4 l 32,32.1 c 6.2,6.2 14.4,9.6 23.2,9.6 8.8,0 17,-3.4 23.2,-9.5 l 4.1,-4.1 c 15,6.8 31,11.1 47.5,12.9 5.4,0.6 10.9,0.9 16.4,0.9 16.5,0 32.8,-2.6 48.5,-7.7 5.2,-1.7 10.3,-3.7 15.3,-5.9 l 4.1,4.1 c 6.2,6.2 14.4,9.6 23.2,9.6 5.8,0 11.5,-1.5 16.4,-4.3 0.1,-0.1 0.2,-0.1 0.3,-0.2 0.3,-0.2 0.5,-0.3 0.8,-0.5 0.2,-0.1 0.4,-0.2 0.6,-0.4 0.1,-0.1 0.3,-0.2 0.4,-0.3 1.7,-1.1 3.2,-2.4 4.7,-3.8 l 32.1,-32 c 12.8,-12.7 12.8,-33.5 0.1,-46.4 l -4.1,-4.1 c 0.3,-0.7 0.6,-1.3 0.9,-2 h 11.3 c 18.5,0 33.5,-15 33.5,-33.4 l 0.1,-56.8 c -0.1,-18.3 -15.1,-33.4 -33.6,-33.4 h -11.3 c -0.3,-0.7 -0.6,-1.3 -0.9,-1.9 l 4.1,-4.1 c 1.1,-1.1 2.1,-2.3 3,-3.5 l 0.1,-0.1 0.1,-0.2 c 0.1,-0.2 0.4,-0.6 0.4,-0.6 3.9,-5.5 5.9,-12 5.9,-18.8 0,-3.9 -0.7,-7.8 -2,-11.4 -1.6,-4.5 -4.2,-8.4 -7.5,-11.8 L 313.2,24.3 c -0.1,-0.1 -0.3,-0.3 -0.4,-0.4 -6.1,-5.9 -14.2,-9.2 -22.8,-9.2 -8.8,0 -17,3.4 -23.2,9.5 l -4.1,4.1 c -15,-6.8 -31,-11.2 -47.5,-12.9 -5.4,-0.6 -10.9,-0.9 -16.4,-0.9 -21.9,0 -43.7,4.6 -63.7,13.6 L 131,24 c -6.2,-6.2 -14.4,-9.6 -23.2,-9.6 z"
   id="path70" />
			</g>
		</g>
	</g>
</g></g><g
   inkscape:label="B.Cu"
   inkscape:groupmode="layer"
   id="g532" /><g
   inkscape:label="B.Mask"
   inkscape:groupmode="layer"
   id="g534" /><g
   inkscape:label="B.SilkS"
   inkscape:groupmode="layer"
   id="g536"
   style="display:inline" /><g
   inkscape:label="F.Cu"
   inkscape:groupmode="layer"
   id="g538" /><g
   inkscape:label="F.Mask"
   inkscape:groupmode="layer"
   id="g540" /><g
   inkscape:label="F.SilkS"
   inkscape:groupmode="layer"
   id="g542"
   style="display:inline"><g
     id="Capa_2"
     transform="matrix(0.25272679,0,0,0.28205128,-2.7547221,-4.0615383)"
     style="display:inline">
	<g
   id="g79">
			<path
   d="m 107.7,313.7 c 0,0 -0.1,0 0,0 -5.4,0 -10.4,-2.1 -14.2,-5.9 l -32,-32 c -7.8,-7.8 -7.8,-20.6 0,-28.5 l 12.1,-12.1 c 1.2,-1.2 3.2,-1.2 4.4,0 1.2,1.2 1.2,3.2 0,4.4 l -12.1,12.1 c -5.4,5.4 -5.4,14.3 0,19.7 l 32,32 c 2.6,2.6 6.1,4.1 9.9,4.1 v 0 c 3.7,0 7.2,-1.4 9.9,-4.1 l 13.7,-13.7 2,1.1 c 15.9,8.7 33.1,14 51.2,15.9 27.7,2.9 55.3,-2.6 79.8,-16 l 2,-1.1 13.8,13.8 c 5.4,5.4 14.3,5.4 19.7,0 l 32,-32 c 5.4,-5.4 5.4,-14.3 0,-19.7 l -12.1,-12.1 c -1.2,-1.2 -1.2,-3.2 0,-4.4 1.2,-1.2 3.2,-1.2 4.4,0 l 12.1,12.1 c 7.8,7.9 7.8,20.6 0,28.5 l -32,32 c -7.9,7.8 -20.6,7.8 -28.5,0 l -10.5,-10.5 c -25.1,13.2 -53.2,18.6 -81.4,15.6 -18.1,-1.9 -35.4,-7.1 -51.4,-15.6 L 122,307.8 c -3.9,3.8 -9,5.9 -14.3,5.9 z"
   id="path77" />
		</g><g
   id="g83">
			<path
   d="m 75.6,106.6 c -0.7,0 -1.5,-0.3 -2.1,-0.8 -0.2,-0.2 -0.3,-0.3 -0.4,-0.5 L 61.4,93.5 c -3.8,-3.8 -5.9,-8.8 -5.9,-14.2 0,-5.4 2.1,-10.4 5.9,-14.2 l 32,-32 c 7.9,-7.9 20.6,-7.9 28.5,0 l 10.5,10.5 C 157.5,30.4 185.6,25 213.7,28 c 18.1,1.9 35.4,7.1 51.4,15.6 L 275.6,33 c 3.8,-3.8 8.9,-5.9 14.2,-5.9 5.3,0 10.4,2.1 14.2,5.9 l 32,32 c 3.8,3.8 5.9,8.8 5.9,14.2 0,5.4 -2.1,10.4 -5.9,14.2 l -12,12.3 c -1.2,1.2 -3.2,1.2 -4.4,0 -1.2,-1.2 -1.2,-3.2 0,-4.4 l 12.1,-12.1 c 2.6,-2.6 4.1,-6.1 4.1,-9.9 0,-3.7 -1.4,-7.2 -4.1,-9.9 l -32,-32 c -2.6,-2.6 -6.1,-4.1 -9.9,-4.1 -3.8,0 -7.2,1.4 -9.9,4.1 l -13.7,13.7 -2,-1.1 C 248.3,41.3 231.1,36 213,34.1 c -27.7,-2.9 -55.3,2.6 -79.8,16 l -2,1.1 -13.8,-13.8 c -2.6,-2.6 -6.1,-4.1 -9.9,-4.1 -3.8,0 -7.2,1.4 -9.9,4.1 l -32,32 c -5.4,5.4 -5.4,14.3 0,19.7 l 14.4,14.3 -2.1,2.1 c -0.6,0.7 -1.4,1.1 -2.3,1.1 z"
   id="path81" />
		</g><g
   id="g87">
			<path
   d="m 283.8,106.6 c -0.9,0 -1.8,-0.4 -2.5,-1.2 -20.1,-25.5 -50.2,-40.1 -82.6,-40.1 -32.4,0 -62.5,14.6 -82.6,40.1 -1.1,1.4 -3,1.6 -4.4,0.5 -1.4,-1.1 -1.6,-3 -0.5,-4.4 21.3,-27 53.2,-42.5 87.5,-42.5 34.3,0 66.2,15.5 87.5,42.5 1.1,1.4 0.8,3.3 -0.5,4.4 -0.5,0.5 -1.2,0.7 -1.9,0.7 z"
   id="path85" />
		</g><g
   id="g91">
			<path
   d="m 198.8,281.8 c -34.3,0 -66.2,-15.5 -87.5,-42.4 -1.1,-1.4 -0.8,-3.3 0.5,-4.4 1.4,-1.1 3.3,-0.8 4.4,0.5 20.1,25.4 50.2,40 82.5,40 32.4,0 62.5,-14.6 82.6,-40 1.1,-1.4 3,-1.6 4.4,-0.5 1.4,1.1 1.6,3 0.5,4.4 -21.3,26.9 -53.1,42.4 -87.4,42.4 z"
   id="path89" />
		</g><a
   id="a604"
   style="display:inline"
   transform="matrix(3.9568421,0,0,3.5454546,10.9,14.4)"><g
     id="Capa_4_2_"
     transform="matrix(0.25272679,0,0,0.28205128,-2.754722,-4.0615384)">
	<g
   id="Capa_4">
			<g
   id="XMLID_29_">
				<path
   id="XMLID_148_"
   d="m 158.4,289.1 c -0.1,0.5 -0.2,0.9 -0.1,1.3 0.2,0.6 0.7,1.1 1.6,1.5 0.5,0.2 1,0.4 1.3,0.4 0.7,0.1 1.2,-0.2 1.5,-0.8 0.2,-0.3 0.1,-0.7 -0.1,-1 -0.2,-0.3 -0.6,-0.7 -1.2,-1.1 l -1,-0.8 c -1,-0.7 -1.6,-1.4 -1.9,-1.8 -0.5,-0.8 -0.5,-1.7 0,-2.7 0.4,-0.9 1.1,-1.6 2.1,-1.9 1,-0.3 2.1,-0.2 3.4,0.4 1.1,0.5 1.9,1.2 2.4,2.2 0.5,0.9 0.5,2 0.1,3.1 l -2.1,-0.9 c 0.2,-0.6 0.2,-1.2 -0.2,-1.7 -0.3,-0.3 -0.7,-0.6 -1.2,-0.8 -0.6,-0.3 -1.1,-0.4 -1.5,-0.3 -0.4,0.1 -0.8,0.3 -0.9,0.7 -0.2,0.4 -0.1,0.7 0.1,1.1 0.2,0.2 0.6,0.6 1.2,1.1 l 1.6,1.3 c 0.7,0.6 1.2,1.1 1.4,1.6 0.4,0.8 0.4,1.6 0,2.6 -0.4,1 -1.1,1.6 -2.1,1.9 -1,0.3 -2.2,0.1 -3.5,-0.5 -1.4,-0.6 -2.3,-1.4 -2.8,-2.4 -0.5,-1 -0.5,-2 0,-3.1 z" />
				<path
   id="XMLID_146_"
   d="m 167.6,296.7 -2.2,-0.8 3.7,-10.8 2.2,0.8 z" />
				<path
   id="XMLID_144_"
   d="m 173,286.5 2.4,0.6 2.5,8.9 1.9,-7.8 2.1,0.5 -2.7,11.1 -2.3,-0.6 -2.5,-9 -1.9,7.9 -2.1,-0.5 z" />
				<path
   id="XMLID_142_"
   d="m 184.4,289.8 c 1,-0.8 2.2,-1.2 3.6,-1 1.9,0.2 3.2,1 3.9,2.4 0.4,0.8 0.6,1.5 0.5,2.2 l -2.3,-0.3 c -0.1,-0.6 -0.2,-1 -0.4,-1.3 -0.4,-0.5 -1,-0.9 -1.8,-1 -0.8,-0.1 -1.5,0.2 -2.1,0.8 -0.6,0.6 -0.9,1.6 -1.1,2.9 -0.1,1.3 0,2.3 0.4,3 0.4,0.7 1.1,1.1 1.8,1.2 0.8,0.1 1.4,-0.1 1.9,-0.6 0.3,-0.3 0.5,-0.7 0.7,-1.3 l 2.3,0.3 c -0.3,1.2 -1,2.2 -1.9,2.9 -0.9,0.7 -2,1 -3.3,0.8 -1.6,-0.2 -2.8,-0.9 -3.6,-2 -0.8,-1.2 -1.1,-2.7 -0.9,-4.5 0.5,-2 1.2,-3.5 2.3,-4.5 z" />
				<path
   id="XMLID_140_"
   d="m 202.6,291.5 -6,0.1 v 2.4 l 5.5,-0.1 v 2 l -5.5,0.1 v 2.9 l 6.3,-0.1 v 2.1 l -8.6,0.1 -0.1,-11.5 8.3,-0.1 z" />
				<path
   id="XMLID_138_"
   d="m 209.8,298 c 0.2,-0.8 0.8,-1.7 1.8,-2.7 0.9,-0.9 1.4,-1.5 1.7,-1.9 0.4,-0.6 0.5,-1.1 0.4,-1.7 -0.1,-0.5 -0.3,-0.8 -0.6,-1.1 -0.3,-0.3 -0.7,-0.4 -1.2,-0.3 -0.7,0.1 -1.1,0.4 -1.2,1 -0.1,0.3 -0.1,0.8 0,1.4 l -2.1,0.4 c -0.1,-1 -0.1,-1.7 0.1,-2.4 0.4,-1.2 1.3,-1.9 2.8,-2.2 1.2,-0.2 2.1,0 2.9,0.5 0.8,0.5 1.3,1.3 1.5,2.4 0.1,0.8 0,1.6 -0.3,2.3 -0.2,0.5 -0.7,1 -1.3,1.7 l -0.8,0.8 c -0.5,0.5 -0.8,0.8 -1,1 -0.2,0.2 -0.3,0.4 -0.4,0.7 l 4.8,-0.9 0.3,1.9 -7.5,1.3 c -0.2,-0.7 -0.1,-1.5 0.1,-2.2 z" />
				<path
   id="XMLID_135_"
   d="m 222.8,287.9 c 0.8,0.8 1.5,2.1 2,3.9 0.5,1.8 0.6,3.2 0.3,4.4 -0.3,1.2 -1.1,1.9 -2.5,2.3 -1.4,0.4 -2.5,0.2 -3.3,-0.6 -0.8,-0.8 -1.5,-2.1 -2,-3.9 -0.5,-1.8 -0.6,-3.3 -0.3,-4.4 0.3,-1.1 1.1,-1.9 2.5,-2.3 1.4,-0.4 2.5,-0.2 3.3,0.6 z m -2.1,8.2 c 0.4,0.6 0.9,0.8 1.5,0.6 0.6,-0.2 0.9,-0.6 0.9,-1.3 0,-0.7 -0.2,-1.7 -0.5,-2.9 -0.4,-1.3 -0.7,-2.2 -1.1,-2.8 -0.4,-0.6 -0.9,-0.8 -1.5,-0.6 -0.6,0.2 -1,0.6 -1,1.3 0,0.7 0.1,1.7 0.5,3 0.4,1.2 0.8,2.1 1.2,2.7 z" />
				<path
   id="XMLID_62_"
   d="m 230.7,285.6 c 0.9,0.7 1.7,2 2.4,3.7 0.7,1.7 0.9,3.2 0.8,4.3 -0.2,1.1 -0.9,2 -2.2,2.5 -1.3,0.5 -2.4,0.4 -3.3,-0.3 -0.9,-0.7 -1.7,-1.9 -2.4,-3.7 -0.7,-1.7 -0.9,-3.2 -0.8,-4.3 0.2,-1.2 0.9,-2 2.2,-2.5 1.3,-0.5 2.4,-0.4 3.3,0.3 z m -1.3,8.4 c 0.4,0.6 1,0.7 1.6,0.5 0.6,-0.2 0.9,-0.7 0.8,-1.4 -0.1,-0.7 -0.3,-1.7 -0.8,-2.9 -0.5,-1.3 -1,-2.2 -1.4,-2.7 -0.4,-0.5 -0.9,-0.7 -1.5,-0.4 -0.6,0.2 -0.9,0.7 -0.8,1.4 0,0.7 0.3,1.7 0.8,2.9 0.4,1.2 0.8,2.1 1.3,2.6 z" />
				<path
   id="XMLID_30_"
   d="M 233.7,287.3 233,286 c 0.6,-0.4 1,-0.6 1.2,-0.8 0.3,-0.3 0.6,-0.6 0.7,-1 0.1,-0.3 0.1,-0.6 0,-0.9 0,-0.2 -0.1,-0.4 -0.1,-0.4 l 1.6,-0.9 5.1,10 -2,1 -3.5,-6.9 z" />
			</g>
		</g>
</g></a>
</g></g><g
   inkscape:label="Dwgs.User"
   inkscape:groupmode="layer"
   id="g544" /><g
   inkscape:label="Drill"
   inkscape:groupmode="layer"
   id="g546" /></svg>
